<svg xmlns="http://www.w3.org/2000/svg" viewBox="0 0 54 54" width="54" height="54" fill="none">
  <defs>
    <linearGradient id="siteBlueGradIcon" x1="0%" y1="0%" x2="100%" y2="100%">
      <stop offset="0%" stop-color="#3B82F6" />
      <stop offset="50%" stop-color="#2563EB" />
      <stop offset="100%" stop-color="#1D4ED8" />
    </linearGradient>

    <linearGradient id="foldFlapGradIcon" x1="0%" y1="100%" x2="100%" y2="0%">
      <stop offset="0%" stop-color="#60A5FA" />
      <stop offset="100%" stop-color="#BFDBFE" />
    </linearGradient>

    <filter id="iconBlueGlowSolo" x="-25%" y="-25%" width="150%" height="150%">
      <feDropShadow dx="0" dy="4" stdDeviation="5" flood-color="#2563EB" flood-opacity="0.55" />
    </filter>
  </defs>

  <g transform="translate(2, 2)" filter="url(#iconBlueGlowSolo)">
    <rect x="0" y="0" width="50" height="50" rx="14" fill="url(#siteBlueGradIcon)" />
    <rect x="0.75" y="0.75" width="48.5" height="48.5" rx="13.25" fill="none" stroke="rgba(255,255,255,0.38)" stroke-width="1.3" />

    <path d="M 12 10 L 31 10 L 38 17 L 38 39.5 C 38 41 36.8 42 35 42 L 12 42 C 10.5 42 9.5 41 9.5 39.5 L 9.5 12.5 C 9.5 11 10.5 10 12 10 Z" 
          fill="rgba(255,255,255,0.18)" 
          stroke="rgba(255,255,255,0.6)" 
          stroke-width="1.3" 
          stroke-linejoin="round" />

    <path d="M 31 10 L 31 17 L 38 17 Z" fill="url(#foldFlapGradIcon)" stroke="rgba(255,255,255,0.7)" stroke-width="0.8" />

    <line x1="14" y1="17" x2="26" y2="17" stroke="rgba(255,255,255,0.85)" stroke-width="2" stroke-linecap="round" />
    <line x1="14" y1="22" x2="22" y2="22" stroke="rgba(255,255,255,0.6)" stroke-width="2" stroke-linecap="round" />
    <line x1="14" y1="27" x2="19" y2="27" stroke="rgba(255,255,255,0.5)" stroke-width="2" stroke-linecap="round" />

    <g transform="translate(23, 21)">
      <circle cx="12" cy="12" r="10.5" fill="#1D4ED8" />
      <circle cx="12" cy="12" r="9.5" fill="#2563EB" stroke="rgba(255,255,255,0.85)" stroke-width="1.2" />
      <path d="M 7.5 12 L 10.5 15 L 16.5 8.5" fill="none" stroke="#FFFFFF" stroke-width="2.4" stroke-linecap="round" stroke-linejoin="round" />
    </g>
  </g>
</svg>
